#N canvas 104 27 829 634 10;
#X obj -135 118 mrpeach/unpackOSC;
#X obj -135 88 mrpeach/udpreceive 12000;
#X obj -135 145 mrpeach/pipelist;
#X floatatom -135 265 5 0 0 0 the_parsingMismatchBox_Ignore - -;
#X floatatom -119 294 5 0 0 0 persistent_id - -;
#X obj -135 172 mrpeach/routeOSC /TSPS;
#X obj -135 203 mrpeach/routeOSC /personUpdated /personWillLeave;
#X floatatom -103 322 5 0 0 0 age - -;
#X floatatom -88 346 5 0 0 0 centroid - -;
#X floatatom -71 368 5 0 0 0 boundingRect_x - -;
#X floatatom -55 395 5 0 0 0 boundingRect_Y - -;
#X floatatom -39 420 5 0 0 0 boundingRect_Width - -;
#X floatatom -23 445 5 0 0 0 boundingRect_Height - -;
#X floatatom -7 470 5 0 0 0 velocity_X - -;
#X floatatom 9 493 5 0 0 0 velocity_Y - -;
#X floatatom 25 515 5 0 0 0 opticalFlow_Velocity_X - -;
#X floatatom 42 540 5 0 0 0 opticalFlow_Velocity_Y - -;
#X obj -135 243 unpack f f f f f f f f f f f f;
#X floatatom 234 269 5 0 0 0 the_parsingMismatchBox_Ignore - -;
#X floatatom 250 298 5 0 0 0 persistent_id - -;
#X floatatom 266 326 5 0 0 0 age - -;
#X floatatom 281 350 5 0 0 0 centroid - -;
#X floatatom 298 372 5 0 0 0 boundingRect_x - -;
#X floatatom 314 399 5 0 0 0 boundingRect_Y - -;
#X floatatom 330 424 5 0 0 0 boundingRect_Width - -;
#X floatatom 346 449 5 0 0 0 boundingRect_Height - -;
#X floatatom 362 474 5 0 0 0 velocity_X - -;
#X floatatom 378 497 5 0 0 0 velocity_Y - -;
#X floatatom 394 519 5 0 0 0 opticalFlow_Velocity_X - -;
#X floatatom 411 544 5 0 0 0 opticalFlow_Velocity_Y - -;
#X obj 234 247 unpack f f f f f f f f f f f f;
#X connect 0 0 2 0;
#X connect 0 1 2 1;
#X connect 1 0 0 0;
#X connect 2 0 5 0;
#X connect 5 0 6 0;
#X connect 6 0 17 0;
#X connect 6 2 30 0;
#X connect 17 0 3 0;
#X connect 17 1 4 0;
#X connect 17 2 7 0;
#X connect 17 3 8 0;
#X connect 17 4 9 0;
#X connect 17 5 10 0;
#X connect 17 6 11 0;
#X connect 17 7 12 0;
#X connect 17 8 13 0;
#X connect 17 9 14 0;
#X connect 17 10 15 0;
#X connect 17 11 16 0;
#X connect 30 0 18 0;
#X connect 30 1 19 0;
#X connect 30 2 20 0;
#X connect 30 3 21 0;
#X connect 30 4 22 0;
#X connect 30 5 23 0;
#X connect 30 6 24 0;
#X connect 30 7 25 0;
#X connect 30 8 26 0;
#X connect 30 9 27 0;
#X connect 30 10 28 0;
#X connect 30 11 29 0;
